# xmcd CD database file
#
# Track frame offsets:
#	150
#	20126
#	40974
#	67892
#	94041
#	108326
#	126836
#	145712
#	161623
#	181130
#	204470
#	221642
#
# Disc length: 3184 seconds
#
# Revision: 0
# Processed by: cddbd v1.5.2PL0 Copyright (c) Steve Scherf et al.
# Submitted via: CDex 1.51
#
DISCID=a60c6e0c
DTITLE=Jan Mason Band - Samotny Wilk II
DYEAR=2000
DGENRE=Country
TTITLE0=Bar przy autostradzie
TTITLE1=Nie jestem sam
TTITLE2=Samotny wilk II
TTITLE3=Portret taty
TTITLE4=Dobrzy ludzie
TTITLE5=Lepsze dni
TTITLE6=Droga do serca
TTITLE7=Nocny kowboj
TTITLE8=B³êkitne trawy
TTITLE9=Zyjê jak chcê
TTITLE10=Dzieci kwiaty
TTITLE11=Country Ameryka
EXTD=YEAR: 2000
EXTT0=
EXTT1=
EXTT2=
EXTT3=
EXTT4=
EXTT5=
EXTT6=
EXTT7=
EXTT8=
EXTT9=
EXTT10=
EXTT11=
PLAYORDER=
